<svg xmlns="http://www.w3.org/2000/svg" width="85.66" height="66.22" viewBox="0 0 85.66 66.22">
  <defs>
    <style>
      .cls-1 {
        fill: #231f20;
      }
    </style>
  </defs>
  <title>Asset 1</title>
  <g id="Layer_2" data-name="Layer 2">
    <g id="Layer_3" data-name="Layer 3">
      <g>
        <circle class="cls-1" cx="25.14" cy="33.11" r="17.24"/>
        <path class="cls-1" d="M85.66,5.17a5,5,0,0,1-1.45,3.65A4.86,4.86,0,0,1,80.6,10.3H58.35V28H73.61a5,5,0,0,1,5.12,5.12,4.61,4.61,0,0,1-1.47,3.54A5.13,5.13,0,0,1,73.61,38H58.35V61.15a4.9,4.9,0,0,1-.39,2,.14.14,0,0,0,0,.06,5.14,5.14,0,0,1-2.74,2.66,5.23,5.23,0,0,1-2,.39h-28a34.07,34.07,0,0,1-12.56-2.4A32.6,32.6,0,0,1,1.53,56.48a5,5,0,0,1-1-1.62A5.33,5.33,0,0,1,.15,53,5.55,5.55,0,0,1,.5,51a4.43,4.43,0,0,1,1.13-1.65,4.84,4.84,0,0,1,1.62-1A5.64,5.64,0,0,1,5.16,48a5.27,5.27,0,0,1,1.92.36,5.14,5.14,0,0,1,1.62,1,22.67,22.67,0,0,0,7.74,5.1,24.19,24.19,0,0,0,8.71,1.57,22,22,0,0,0,9-1.91,22.53,22.53,0,0,0,7.17-5,23.15,23.15,0,0,0,4.74-7.31,22.76,22.76,0,0,0,1.71-8.76,22.43,22.43,0,0,0-1.81-9A23,23,0,0,0,33.82,12a22.44,22.44,0,0,0-8.67-1.78H25a24,24,0,0,0-8.72,1.63A22.27,22.27,0,0,0,8.6,17,4.4,4.4,0,0,1,7,18,5.8,5.8,0,0,1,5,18.33a4.89,4.89,0,0,1-1.9-.39,5.35,5.35,0,0,1-1.71-1.09A5.21,5.21,0,0,1,.35,15.17a5.12,5.12,0,0,1,0-3.72A4.45,4.45,0,0,1,1.48,9.83a32.27,32.27,0,0,1,11-7.39A33.38,33.38,0,0,1,24.93,0H80.6a4.7,4.7,0,0,1,2,.42,5.35,5.35,0,0,1,1.6,1.11,4.91,4.91,0,0,1,1.09,1.63A5.33,5.33,0,0,1,85.66,5.17Z"/>
      </g>
    </g>
  </g>
</svg>
