<svg xmlns="http://www.w3.org/2000/svg" viewBox="0 0 95.06 76.43"><defs><style>.cls-1{fill:#9e1f63;}.cls-2{fill:#69a583;}.cls-3{fill:none;stroke:#f7941d;stroke-miterlimit:10;stroke-width:0.5px;}</style></defs><title>Asset 3</title><g id="Layer_2" data-name="Layer 2"><g id="Layer_3" data-name="Layer 3"><circle class="cls-1" cx="30.58" cy="38.21" r="11.66"/><path class="cls-2" d="M88.58,11.44a4.76,4.76,0,0,1-1.39,3.49,4.66,4.66,0,0,1-3.46,1.42H62.4v17H77a4.82,4.82,0,0,1,4.91,4.9,4.44,4.44,0,0,1-1.41,3.4A4.92,4.92,0,0,1,77,42.92H62.4V65.09A4.71,4.71,0,0,1,62,67s0,0,0,0a4.83,4.83,0,0,1-2.63,2.55,5,5,0,0,1-1.93.38H30.58a32.68,32.68,0,0,1-12-2.3,31.3,31.3,0,0,1-10.6-7,4.83,4.83,0,0,1-1-1.55,5.15,5.15,0,0,1-.34-1.82A5.33,5.33,0,0,1,7,55.38,4.25,4.25,0,0,1,8,53.8a4.69,4.69,0,0,1,1.55-1,5.48,5.48,0,0,1,1.84-.32,5.09,5.09,0,0,1,1.84.35,4.82,4.82,0,0,1,1.55,1,21.61,21.61,0,0,0,7.42,4.88,23.06,23.06,0,0,0,8.34,1.51,21.08,21.08,0,0,0,8.65-1.83,21.74,21.74,0,0,0,6.87-4.8,22.22,22.22,0,0,0,4.54-7,22.26,22.26,0,0,0-.09-17A22.11,22.11,0,0,0,38.89,18a21.32,21.32,0,0,0-8.31-1.7h-.16a23,23,0,0,0-8.36,1.56,21.29,21.29,0,0,0-7.34,4.88,4.22,4.22,0,0,1-1.58,1,5.58,5.58,0,0,1-1.84.33,4.68,4.68,0,0,1-1.82-.38,5.18,5.18,0,0,1-1.64-1,5,5,0,0,1-1-1.61,4.85,4.85,0,0,1-.34-1.78,4.9,4.9,0,0,1,.34-1.79A4.27,4.27,0,0,1,7.9,15.9,30.89,30.89,0,0,1,18.4,8.82a32,32,0,0,1,12-2.34H83.73a4.51,4.51,0,0,1,1.91.4A5.22,5.22,0,0,1,87.17,8a4.64,4.64,0,0,1,1,1.56A5.1,5.1,0,0,1,88.58,11.44Z"/><path class="cls-3" d="M57.45,72.82H30.58a35.59,35.59,0,0,1-13.08-2.5A34.18,34.18,0,0,1,5.92,62.65a7.6,7.6,0,0,1-1.62-2.5,8,8,0,0,1-.55-2.91,8.21,8.21,0,0,1,.51-2.86,7.35,7.35,0,0,1,1.83-2.7,7.48,7.48,0,0,1,2.49-1.53,8,8,0,0,1,5.72,0,7.77,7.77,0,0,1,2.48,1.54A19.15,19.15,0,0,0,23.27,56a20.42,20.42,0,0,0,7.31,1.31,18,18,0,0,0,7.47-1.57,18.75,18.75,0,0,0,6-4.17,19.26,19.26,0,0,0,4-6.11,19,19,0,0,0,1.43-7.31,18.52,18.52,0,0,0-1.5-7.46,19.2,19.2,0,0,0-10.16-10.1,18.59,18.59,0,0,0-7.19-1.47h-.14a20.22,20.22,0,0,0-7.32,1.37,18.64,18.64,0,0,0-6.35,4.23,7.31,7.31,0,0,1-2.66,1.68,7.89,7.89,0,0,1-5.72-.11,8.1,8.1,0,0,1-2.5-1.61l-.12-.12a7.74,7.74,0,0,1-1.63-8.14,7.23,7.23,0,0,1,1.77-2.62A34.1,34.1,0,0,1,17.32,6.15,35.08,35.08,0,0,1,30.37,3.6H83.73a7.46,7.46,0,0,1,3.11.67A8.08,8.08,0,0,1,89.2,5.91a7.55,7.55,0,0,1,1.66,2.48,8,8,0,0,1,.59,3A7.7,7.7,0,0,1,89.23,17a7.54,7.54,0,0,1-5.5,2.27H65.28v11.2H77a7.68,7.68,0,0,1,7.78,7.78,7.26,7.26,0,0,1-2.33,5.5A7.78,7.78,0,0,1,77,45.79H65.28v19.3a7.67,7.67,0,0,1-.39,2.45v.1l-.26.56a7.75,7.75,0,0,1-4.13,4A7.94,7.94,0,0,1,57.45,72.82Z"/><path class="cls-3" d="M57.45,76.18H30.58a38.88,38.88,0,0,1-14.31-2.74A37.73,37.73,0,0,1,3.55,65a11.4,11.4,0,0,1-2.36-3.61,11.4,11.4,0,0,1-.07-8.21A10.75,10.75,0,0,1,7.4,47a11.32,11.32,0,0,1,11.67,2.27,15.91,15.91,0,0,0,5.4,3.63A17.12,17.12,0,0,0,30.58,54a14.83,14.83,0,0,0,6.09-1.28,15.41,15.41,0,0,0,4.93-3.43,15.86,15.86,0,0,0,3.28-5.07,15.65,15.65,0,0,0,1.17-6,15.16,15.16,0,0,0-1.23-6.13,16,16,0,0,0-3.37-5,16.22,16.22,0,0,0-5-3.38,15.44,15.44,0,0,0-5.89-1.19h-.1a16.86,16.86,0,0,0-6.11,1.15,15.2,15.2,0,0,0-5.19,3.48A10.64,10.64,0,0,1,15.2,29.6,11.34,11.34,0,0,1,3.57,27.16l-.26-.26A10.93,10.93,0,0,1,1,23.3a11.14,11.14,0,0,1-.05-8,10.66,10.66,0,0,1,2.58-3.85A37.27,37.27,0,0,1,16.06,3,38.48,38.48,0,0,1,30.37.25H83.73a10.81,10.81,0,0,1,4.51,1,11.47,11.47,0,0,1,3.34,2.32A10.91,10.91,0,0,1,94,7.09a11.53,11.53,0,0,1,.85,4.34A11,11,0,0,1,83.73,22.58H68.63v4.5H77A11,11,0,0,1,88.17,38.21a10.69,10.69,0,0,1-3.41,8,11.07,11.07,0,0,1-7.73,3h-8.4V65.09a11.16,11.16,0,0,1-.39,3v.32l-.55,1.22a11.17,11.17,0,0,1-5.9,5.74A11.31,11.31,0,0,1,57.45,76.18Z"/></g></g></svg>